# xmcd
#
# Track frame offsets:
# 150
# 10132
# 20546
# 33518
# 48293
# 62670
# 75605
# 85128
# 101537
# 113747
# 129074
# 141346
# 154295
# 171022
# 187104
# 199482
# 211984
# 222756
# 234789
# 247405
# 261512
#
# Disc length: 3703 seconds
#
#
# Revision: 0
# Processed by: cddbd v1.5.1PL0 Copyright (c) Steve Scherf et al.
# Submitted via: FreeRIP 2.51 
#
DISCID=270e7515
DTITLE=Merle Haggard - 43 Legendary Hits CD 1
DYEAR=1900
DGENRE=Country
TTITLE0=Mama Tried
TTITLE1=Sing A Sad Song
TTITLE2=Swinging Doors
TTITLE3=For A Lonesome Fugitive
TTITLE4=Branded Man
TTITLE5=Sing Me Back Home
TTITLE6=The Legend Of Bonnie And Clyde
TTITLE7=Hungry Eyes
TTITLE8=Workin´ Man Blues
TTITLE9=Silver Wings
TTITLE10=Okie From Muskogee
TTITLE11=The Fightin´ Side Of Me
TTITLE12=Daddy Frank
TTITLE13=It´s Not Love
TTITLE14=Everybody´s Had The Blues
TTITLE15=If We Make It Through December
TTITLE16=Old Man From The Mountain
TTITLE17=Things Aren´t Funny Anymore
TTITLE18=Movin´ On
TTITLE19=Always Wanting You
TTITLE20=It´s AllIn The Movies
EXTD=
EXTT0=
EXTT1=
EXTT2=
EXTT3=
EXTT4=
EXTT5=
EXTT6=
EXTT7=
EXTT8=
EXTT9=
EXTT10=
EXTT11=
EXTT12=
EXTT13=
EXTT14=
EXTT15=
EXTT16=
EXTT17=
EXTT18=
EXTT19=
EXTT20=
PLAYORDER=
